PathFileType	4	(X/Y/Z)	/Users/itak/Documents/Research/Walk-IL/dataset/trc/00360_00011.trc
DataRate	CameraRate	NumFrames	NumMarkers	Units	OrigDataRate	OrigDataStartFrame	OrigNumFrames
100.000000	100.000000	4	56	mm	100.000000	204	409
Frame#	Time	RPSI			LPSI			L3			STRN			T10			C7			CLAV			RBAK			LBAK			LSHO			LUPA			LAEL			LAOL			LWTS			LWPS			LFRA			LIFD			LHPS			LHTS			RSHO			RUPA			RAEL			RAOL			RWTS			RWPS			RFRA			RIFD			RHTS			RHPS			RBHD			LFHD			RFHD			LBHD			LHIP			RHIP			RASI			LASI			LKNE			LTHI			LANK			LTIP			LTOE			LMT1			LMT5			LHEE			RKNE			RTHI			RTIP			RTOE			RMT1			RMT5			RANK			RHEE			*53			*54			*55			
		X1	Y1	Z1	X2	Y2	Z2	X3	Y3	Z3	X4	Y4	Z4	X5	Y5	Z5	X6	Y6	Z6	X7	Y7	Z7	X8	Y8	Z8	X9	Y9	Z9	X10	Y10	Z10	X11	Y11	Z11	X12	Y12	Z12	X13	Y13	Z13	X14	Y14	Z14	X15	Y15	Z15	X16	Y16	Z16	X17	Y17	Z17	X18	Y18	Z18	X19	Y19	Z19	X20	Y20	Z20	X21	Y21	Z21	X22	Y22	Z22	X23	Y23	Z23	X24	Y24	Z24	X25	Y25	Z25	X26	Y26	Z26	X27	Y27	Z27	X28	Y28	Z28	X29	Y29	Z29	X30	Y30	Z30	X31	Y31	Z31	X32	Y32	Z32	X33	Y33	Z33	X34	Y34	Z34	X35	Y35	Z35	X36	Y36	Z36	X37	Y37	Z37	X38	Y38	Z38	X39	Y39	Z39	X40	Y40	Z40	X41	Y41	Z41	X42	Y42	Z42	X43	Y43	Z43	X44	Y44	Z44	X45	Y45	Z45	X46	Y46	Z46	X47	Y47	Z47	X48	Y48	Z48	X49	Y49	Z49	X50	Y50	Z50	X51	Y51	Z51	X52	Y52	Z52	X53	Y53	Z53	X54	Y54	Z54	X55	Y55	Z55	X56	Y56	Z56	

205	2.04	622.328369140625	951.8965454101562	-218.2188110351562	495.985595703125	950.636474609375	-184.2511596679688	556.8358764648438	1009.790588378906	-200.8098754882812	501.9085998535156	1206.900634765625	-417.4233093261719	546.0673828125	1129.376708984375	-185.1550140380859	518.8372192382812	1379.096313476562	-210.3345031738281	502.7955322265625	1330.800048828125	-368.4000549316406	595.14990234375	1239.554809570312	-181.5409240722656	420.7491760253906	1337.832397460938	-186.0337371826172	352.3433837890625	1357.111083984375	-261.3975830078125	290.0579528808594	1234.087036132812	-248.3213806152344	276.5071411132812	1035.43408203125	-296.72119140625	335.4228820800781	1012.795349121094	-236.2746887207031	325.9103698730469	813.3934936523438	-435.2959594726562	267.3174743652344	798.4251708984375	-400.964111328125	269.0737609863281	935.113037109375	-330.2997436523438	321.2884216308594	653.1504516601562	-461.7850646972656	271.3943786621094	729.3797607421875	-406.7885437011719	309.7472229003906	738.0325317382812	-457.1303100585938	672.2727661132812	1374.064819335938	-291.2416687011719	737.6799926757812	1311.586547851562	-290.8950805664062	784.6162719726562	1045.637084960938	-303.7804260253906	703.1343994140625	1035.463989257812	-257.1561279296875	735.7510375976562	814.8237915039062	-407.9807434082031	806.6226806640625	803.814453125	-381.0843200683594	794.1967163085938	979.1527709960938	-329.7467956542969	751.6417236328125	642.013427734375	-416.6246032714844	749.3915405273438	712.97412109375	-433.6192932128906	805.7816772460938	719.4705200195312	-393.27587890625	583.777587890625	1592.482299804688	-264.2300415039062	447.5658874511719	1598.219848632812	-421.7058410644531	548.7577514648438	1603.096069335938	-422.735107421875	442.7486572265625	1581.112426757812	-235.8774871826172	372.1489562988281	899.141357421875	-246.5550689697266	706.4053955078125	905.811279296875	-323.3525390625	637.4705810546875	939.3094482421875	-415.0089111328125	400.657958984375	931.7154541015625	-376.3276062011719	353.3152160644531	451.6689147949219	-362.2760620117188	352.8490600585938	583.525634765625	-344.6210327148438	400.222412109375	206.9765319824219	-14.41620922088623	364.5532836914062	307.9964599609375	-186.7908325195312	431.6704711914062	32.6673583984375	-124.7610778808594	478.2137756347656	74.56151580810547	-77.59980773925781	368.5278930664062	103.0433959960938	-76.93850708007812	471.468505859375	225.0847778320312	1.307595729827881	666.2794189453125	462.5364685058594	-478.3346862792969	692.3756103515625	721.5457763671875	-444.6076965332031	657.574462890625	344.67822265625	-506.9806518554688	593.7526245117188	42.80727386474609	-663.4779052734375	552.7817993164062	39.91971206665039	-607.2337036132812	663.5418701171875	27.75935363769531	-568.3925170898438	650.4964599609375	39.08428192138672	-469.2791748046875	601.5645751953125	43.3099479675293	-420.0712890625	nan	nan	nan	nan	nan	nan	nan	nan	nan	
206	2.05	625.5381469726562	953.0291748046875	-224.8963012695312	499.4405212402344	951.630859375	-189.7338409423828	560.8516235351562	1011.513610839844	-208.0030517578125	503.2764282226562	1208.256713867188	-423.6522216796875	550.2625122070312	1130.90087890625	-192.2790832519531	522.7852172851562	1380.671264648438	-217.1929626464844	504.798583984375	1332.190185546875	-374.8323059082031	599.739013671875	1241.154541015625	-189.0016326904297	425.1142883300781	1339.576049804688	-191.5757751464844	355.8083801269531	1358.7578125	-266.08447265625	293.648681640625	1235.691040039062	-251.7938232421875	279.7298278808594	1036.673706054688	-297.8189697265625	339.7961730957031	1014.69775390625	-238.7820892333984	324.076171875	810.1481323242188	-431.8639221191406	266.2959289550781	797.0198974609375	-395.454833984375	271.0083312988281	935.7465209960938	-329.1241760253906	317.3114318847656	648.7984619140625	-452.1725158691406	269.690673828125	727.695556640625	-398.8597412109375	306.7177124023438	734.03271484375	-450.5062255859375	675.2212524414062	1375.631469726562	-299.9437561035156	740.7478637695312	1313.228393554688	-300.8412780761719	789.3846435546875	1047.804077148438	-318.1686096191406	708.830810546875	1036.313110351562	-270.205322265625	740.1885986328125	818.6792602539062	-425.6113586425781	811.48095703125	807.4309692382812	-399.8436279296875	799.0046997070312	981.7752075195312	-345.3112487792969	756.7284545898438	645.9354248046875	-438.2416687011719	754.182861328125	717.6555786132812	-453.8340148925781	810.9389038085938	723.4534301757812	-413.9340515136719	587.017578125	1593.889526367188	-271.512451171875	449.8137512207031	1599.746459960938	-428.1170043945312	550.9813232421875	1604.535522460938	-429.768798828125	446.1705017089844	1582.636352539062	-242.2596282958984	375.1962280273438	900.5465087890625	-251.6011810302734	709.7960205078125	907.5244140625	-329.1383972167969	639.4263916015625	940.0654907226562	-421.7873840332031	402.8372192382812	933.6177368164062	-381.466064453125	353.5494995117188	455.0203552246094	-376.9875793457031	353.6775817871094	586.1361083984375	-356.7068176269531	403.2900085449219	211.7421875	-28.16350364685059	366.0213928222656	311.9888610839844	-201.0331115722656	430.8652954101562	35.3213005065918	-139.6814422607422	478.8871459960938	78.56932830810547	-93.27137756347656	369.8178405761719	108.0221176147461	-90.23892974853516	474.9290466308594	229.113525390625	-13.4910249710083	666.7847900390625	462.4035339355469	-481.1263427734375	693.2243041992188	721.6038818359375	-450.4660339355469	657.9536743164062	344.3228149414062	-508.9806213378906	593.3140869140625	41.96410751342773	-663.74853515625	552.4495849609375	39.52501678466797	-607.3541870117188	663.4308471679688	27.86883544921875	-568.451171875	650.3109741210938	39.14113616943359	-469.4054565429688	601.4554443359375	43.52039337158203	-420.193115234375	nan	nan	nan	nan	nan	nan	nan	nan	nan	
207	2.06	628.5363159179688	954.0406494140625	-231.3455810546875	502.7182312011719	952.661865234375	-195.1431274414062	564.6940307617188	1013.138916015625	-214.8519744873047	504.5416870117188	1209.596557617188	-429.6860656738281	554.3871459960938	1132.37939453125	-199.1633605957031	526.6619873046875	1382.188354492188	-223.8546905517578	506.7189025878906	1333.542114257812	-381.0456848144531	604.2066650390625	1242.68359375	-196.3270263671875	429.4198913574219	1341.247314453125	-196.9433288574219	359.1882629394531	1360.337036132812	-270.5545959472656	297.2305908203125	1237.22021484375	-254.9633331298828	282.7955627441406	1037.875244140625	-298.5576477050781	344.0900573730469	1016.476806640625	-241.086669921875	322.1912841796875	807.4108276367188	-428.2938537597656	265.3847045898438	795.9776000976562	-389.8356628417969	272.9366149902344	936.4613037109375	-327.6629943847656	313.599609375	645.2710571289062	-442.8845825195312	268.2107543945312	726.4906005859375	-391.0222473144531	303.77880859375	730.7171020507812	-443.9061279296875	678.0762939453125	1377.12451171875	-308.4140014648438	743.6943969726562	1314.791748046875	-310.5468444824219	793.95166015625	1049.9814453125	-332.364990234375	714.3363037109375	1037.139770507812	-283.1554565429688	744.5240478515625	822.6322021484375	-443.1107788085938	816.2030639648438	811.17724609375	-418.4058837890625	803.61083984375	984.4339599609375	-360.677734375	761.7975463867188	650.1766967773438	-459.9304809570312	758.9259643554688	722.5571899414062	-473.9983825683594	815.9653930664062	727.6265869140625	-434.4577331542969	590.1744384765625	1595.248168945312	-278.6429138183594	451.9804382324219	1601.203125	-434.3699035644531	553.1222534179688	1605.904663085938	-436.6473999023438	449.5333862304688	1584.125732421875	-248.4797210693359	378.0699157714844	902.072021484375	-256.5983581542969	713.1012573242188	909.090087890625	-334.541015625	641.397705078125	940.7453002929688	-428.2838439941406	405.0082702636719	935.540283203125	-386.5522155761719	353.7498779296875	458.5716552734375	-391.0878295898438	354.3682861328125	588.9739990234375	-368.3381652832031	406.2351684570312	215.2821197509766	-42.06912231445312	367.4041137695312	315.6478881835938	-215.0798950195312	430.1958618164062	38.43322372436523	-155.9258270263672	479.6220092773438	82.03025817871094	-109.9231185913086	371.0916137695312	112.3471832275391	-104.4572677612305	478.239501953125	231.96044921875	-28.36325073242188	667.3209838867188	462.26025390625	-483.7591552734375	694.0509033203125	721.6023559570312	-456.0422668457031	658.3751220703125	343.9878845214844	-510.7972717285156	592.9124755859375	41.24015045166016	-663.978271484375	552.136962890625	39.17518615722656	-607.466064453125	663.3280639648438	27.97166633605957	-568.5084838867188	650.1181030273438	39.18283081054688	-469.5103454589844	601.3362426757812	43.73062133789062	-420.3141784667969	nan	nan	nan	nan	nan	nan	nan	nan	nan	
208	2.07	631.298095703125	954.9692993164062	-237.5597381591797	505.7730102539062	953.753173828125	-200.523193359375	568.32080078125	1014.65087890625	-221.3250122070312	505.744384765625	1210.934448242188	-435.5436706542969	558.4190063476562	1133.811279296875	-205.8092956542969	530.462646484375	1383.6435546875	-230.3115386962891	508.5811157226562	1334.86669921875	-387.0460815429688	608.5297241210938	1244.1318359375	-203.5192718505859	433.6486511230469	1342.843139648438	-202.1582336425781	362.4856567382812	1361.861450195312	-274.8395385742188	300.7968444824219	1238.707397460938	-257.8501892089844	285.717529296875	1039.068115234375	-298.9428405761719	348.3216552734375	1018.167175292969	-243.1665344238281	320.2850036621094	805.1854858398438	-424.6191101074219	264.6025085449219	795.2855224609375	-384.1453857421875	274.8627014160156	937.2608642578125	-325.9147033691406	310.1731262207031	642.5325927734375	-434.025634765625	266.9735717773438	725.731689453125	-383.3386840820312	300.9621887207031	728.0751342773438	-437.397216796875	680.843505859375	1378.55615234375	-316.6197814941406	746.530029296875	1316.296508789062	-319.973876953125	798.2960205078125	1052.18505859375	-346.3343200683594	719.6190795898438	1037.967407226562	-295.9769897460938	748.736328125	826.7010498046875	-460.4484252929688	820.767822265625	815.0748291015625	-436.7342529296875	807.991455078125	987.1486206054688	-375.8126525878906	766.8477172851562	654.7593994140625	-481.603271484375	763.5933837890625	727.6787109375	-494.0390625	820.8533325195312	732.0165405273438	-454.7898254394531	593.2491455078125	1596.562866210938	-285.6163635253906	454.0672302246094	1602.581298828125	-440.4609069824219	555.1836547851562	1607.20166015625	-443.3685913085938	452.8380737304688	1585.576904296875	-254.5360870361328	380.7461242675781	903.7212524414062	-261.5980834960938	716.2684936523438	910.4863891601562	-339.6473388671875	643.421875	941.3842163085938	-434.49560546875	407.2008972167969	937.4710693359375	-391.6245422363281	353.8964538574219	462.2541809082031	-404.5181579589844	354.9197387695312	591.984130859375	-379.4633178710938	408.9866943359375	217.5684814453125	-56.10649871826172	368.6702880859375	318.9110412597656	-228.882080078125	429.7154846191406	41.8187370300293	-173.3310546875	480.4203186035156	84.90976715087891	-127.3889389038086	372.32470703125	115.9234848022461	-119.5059280395508	481.3192138671875	233.6222229003906	-43.25514602661133	667.9259643554688	462.1129455566406	-486.2386169433594	694.9042358398438	721.5696411132812	-461.3219299316406	658.8690185546875	343.6791687011719	-512.4459228515625	592.5646362304688	40.63682174682617	-664.1669921875	551.8600463867188	38.87892913818359	-607.5689086914062	663.2421875	28.06191635131836	-568.5636596679688	649.9337158203125	39.21285247802734	-469.5983581542969	601.219482421875	43.93780899047852	-420.4330444335938	nan	nan	nan	nan	nan	nan	nan	nan	nan	
